<?xml version="1.0" standalone="no"?><!DOCTYPE svg PUBLIC "-//W3C//DTD SVG 20010904//EN"
 "http://www.w3.org/TR/2001/REC-SVG-20010904/DTD/svg10.dtd"><svg version="1.0" xmlns="http://www.w3.org/2000/svg" width="1920.000000pt" height="1080.000000pt" viewBox="0 0 1920.000000 1080.000000" preserveAspectRatio="xMidYMid meet"><metadata>Created by potrace 1.16, written by Peter Selinger 2001-2019</metadata><g transform="translate(0.000000,1080.000000) scale(0.100000,-0.100000)" fill="#000000" stroke="none"><path d="M10480 9880 c0 -6 -30 -10 -70 -10 -38 0 -70 -4 -70 -9 0 -7 -91 -22
-240 -38 -25 -3 -47 -9 -50 -12 -6 -9 -163 -41 -197 -41 -13 0 -23 -4 -23 -10
0 -5 -18 -10 -40 -10 -22 0 -40 -3 -40 -8 0 -7 -71 -25 -155 -39 -16 -3 -48
-13 -70 -24 -23 -10 -62 -22 -88 -25 -26 -4 -50 -11 -53 -15 -3 -5 -14 -9 -25
-9 -10 0 -19 -4 -19 -9 0 -5 -18 -12 -40 -16 -22 -4 -40 -11 -40 -16 0 -5 -13
-9 -30 -9 -16 0 -30 -4 -30 -10 0 -5 -9 -10 -19 -10 -11 0 -22 -4 -25 -9 -3
-4 -20 -11 -38 -15 -40 -8 -88 -28 -88 -38 0 -3 -18 -9 -40 -13 -22 -4 -40
-11 -40 -16 0 -5 -7 -9 -15 -9 -8 0 -15 -3 -15 -8 0 -8 -42 -28 -82 -37 -14
-4 -35 -15 -46 -25 -11 -11 -33 -22 -49 -26 -15 -4 -35 -15 -44 -26 -9 -10
-23 -18 -31 -18 -8 0 -19 -5 -25 -11 -12 -12 -34 -25 -90 -54 -18 -10 -33 -21
-33 -26 0 -5 -7 -9 -15 -9 -8 0 -22 -11 -31 -25 -9 -14 -21 -25 -26 -25 -6 0
-26 -13 -45 -30 -18 -16 -38 -30 -43 -30 -6 0 -10 -7 -10 -15 0 -9 -8 -18 -17
-22 -20 -6 -203 -183 -203 -195 0 -4 -17 -26 -37 -48 -44 -48 -46 -80 -7 -155
13 -27 24 -57 24 -67 0 -10 5 -18 10 -18 6 0 10 -9 10 -19 0 -11 5 -23 10 -26
6 -3 19 -25 29 -48 11 -23 29 -52 40 -64 12 -12 21 -28 21 -35 0 -7 20 -35 45
-62 25 -26 45 -51 45 -54 0 -2 34 -40 75 -83 41 -43 75 -86 75 -94 0 -8 3 -15
8 -15 4 0 16 -16 26 -35 10 -19 26 -42 35 -52 9 -10 31 -48 49 -86 19 -37 38
-70 43 -73 5 -3 9 -14 9 -25 0 -10 5 -19 10 -19 6 0 10 -8 10 -18 0 -11 9 -27
20 -37 11 -10 22 -33 26 -51 3 -19 10 -34 15 -34 5 0 9 -7 9 -15 0 -8 4 -15
10 -15 5 0 12 -16 16 -35 3 -19 10 -35 15 -35 5 0 9 -11 9 -25 0 -14 4 -25 9
-25 5 0 12 -13 16 -30 4 -16 11 -32 16 -35 5 -4 9 -17 9 -30 0 -13 5 -27 10
-30 6 -3 10 -15 10 -26 0 -10 4 -19 9 -19 5 0 13 -25 16 -55 4 -30 11 -58 16
-61 5 -3 9 -50 9 -104 0 -110 -9 -130 -60 -130 -16 0 -30 -5 -32 -11 -2 -6
-25 -13 -51 -16 -26 -3 -47 -10 -47 -14 0 -5 -13 -9 -30 -9 -16 0 -30 -4 -30
-10 0 -5 -8 -10 -17 -10 -10 0 -27 -7 -37 -15 -11 -8 -29 -15 -40 -15 -12 0
-38 -16 -58 -35 -20 -19 -40 -35 -43 -35 -4 0 -16 -11 -27 -25 -11 -14 -25
-25 -32 -25 -7 0 -43 -31 -80 -70 l-68 -70 -129 0 c-81 0 -129 -4 -129 -10 0
-6 -11 -15 -25 -20 -14 -5 -25 -16 -25 -23 0 -7 -13 -25 -28 -40 -27 -26 -31
-27 -149 -27 -67 0 -124 4 -127 9 -3 4 -40 11 -83 14 -43 3 -79 11 -81 16 -2
6 -7 11 -11 11 -4 0 -66 -59 -137 -131 -71 -72 -136 -134 -145 -137 -17 -8
-139 -143 -154 -173 -5 -10 -13 -19 -17 -19 -5 0 -8 -5 -8 -10 0 -6 -11 -22
-25 -36 -14 -14 -25 -29 -25 -34 0 -5 -11 -20 -25 -34 -14 -14 -25 -32 -25
-41 0 -8 -4 -15 -8 -15 -12 0 -50 -76 -58 -115 -3 -19 -10 -35 -15 -35 -5 0
-9 -61 -9 -135 0 -74 4 -135 8 -135 7 0 22 -96 39 -237 3 -24 9 -43 13 -43 4
0 10 -15 13 -32 12 -78 32 -158 39 -158 5 0 8 -13 8 -30 0 -16 4 -30 9 -30 5
0 12 -18 16 -40 4 -22 11 -42 16 -46 5 -3 9 -19 9 -36 0 -16 9 -42 19 -57 11
-15 22 -43 26 -64 4 -20 11 -37 16 -37 5 0 9 -9 9 -20 0 -11 5 -20 10 -20 6 0
10 -8 10 -19 0 -10 16 -33 35 -52 19 -19 35 -39 35 -45 0 -6 7 -17 15 -24 12
-10 15 -37 15 -121 0 -66 -4 -109 -10 -109 -5 0 -10 -11 -10 -25 l0 -25 175 0
c102 0 175 4 175 9 0 6 32 13 70 17 39 4 73 11 76 15 3 5 14 9 25 9 10 0 19 5
19 10 0 6 8 10 18 10 10 0 27 7 38 15 10 8 27 15 36 15 9 0 18 3 20 8 2 4 21
16 43 27 42 21 140 103 175 148 15 19 18 31 12 44 -6 10 -16 31 -23 47 -8 16
-20 31 -29 34 -8 3 -18 10 -22 16 -12 17 -10 166 2 166 6 0 10 10 10 22 0 33
31 138 41 138 5 0 9 9 9 19 0 11 4 22 9 25 5 3 12 22 15 41 4 19 11 35 16 35
6 0 10 11 10 25 0 14 5 25 10 25 6 0 10 8 10 19 0 10 7 24 15 31 8 7 15 21 15
31 0 11 5 19 10 19 6 0 10 8 10 18 0 9 7 30 15 46 8 15 15 37 15 47 0 11 5 19
10 19 15 0 13 197 -1 202 -7 2 -14 36 -17 79 -5 85 4 108 76 184 17 19 22 36
22 77 0 71 18 116 62 164 21 21 38 44 38 49 0 6 32 41 70 77 l70 67 0 60 c0
79 36 171 67 171 4 0 20 11 35 25 15 14 33 25 41 25 7 0 22 7 33 15 24 18 159
20 194 2 22 -11 25 -20 28 -70 2 -32 -1 -57 -7 -57 -5 0 -12 -22 -16 -50 -4
-27 -11 -50 -16 -50 -5 0 -9 -9 -9 -20 0 -11 5 -20 10 -20 6 0 10 -8 10 -18 0
-10 18 -36 40 -57 22 -21 40 -47 40 -57 0 -10 5 -18 10 -18 6 0 10 -45 10
-115 0 -63 -4 -115 -9 -115 -5 0 -12 -13 -16 -30 -4 -16 -11 -30 -16 -30 -5 0
-9 -7 -9 -15 0 -8 -4 -15 -10 -15 -5 0 -10 -9 -10 -20 0 -11 -4 -20 -9 -20 -5
0 -13 -10 -17 -22 -4 -13 -14 -30 -23 -38 -22 -20 -71 -120 -71 -145 -1 -11
-7 -31 -15 -45 -17 -30 -20 -100 -4 -100 7 0 19 -9 28 -19 12 -14 38 -21 96
-28 68 -7 80 -11 84 -28 2 -11 6 -22 10 -25 12 -10 41 -106 41 -137 0 -18 4
-33 9 -33 4 0 11 -35 14 -77 7 -100 22 -141 53 -149 13 -3 24 -10 24 -15 0 -5
29 -9 64 -9 58 0 64 -2 70 -22 3 -13 6 -105 6 -205 0 -101 4 -183 9 -183 5 0
12 -12 16 -27 6 -28 61 -93 77 -93 5 0 21 -11 36 -25 20 -19 38 -25 70 -25 50
0 70 10 139 71 53 48 84 59 159 59 40 0 44 -2 44 -25 0 -14 4 -25 9 -25 24 0
52 -340 32 -393 -6 -15 -21 -31 -34 -36 -13 -5 -43 -28 -66 -50 -23 -23 -47
-41 -52 -41 -5 0 -26 -16 -46 -35 -20 -19 -42 -35 -49 -35 -6 0 -17 -7 -24
-15 -7 -8 -23 -15 -36 -15 -13 0 -24 -3 -24 -8 0 -4 -36 -16 -80 -26 -44 -11
-80 -23 -80 -28 0 -4 -14 -8 -30 -8 -46 0 -120 -51 -120 -82 0 -10 -4 -18 -9
-18 -5 0 -12 -18 -16 -40 -4 -22 -11 -42 -16 -46 -5 -3 -9 -16 -9 -30 0 -13
-4 -24 -10 -24 -5 0 -10 -18 -10 -40 0 -22 -4 -40 -9 -40 -5 0 -12 -27 -16
-60 -4 -33 -11 -60 -16 -60 -5 0 -9 -25 -9 -55 0 -30 -4 -55 -10 -55 -5 0 -10
-20 -10 -45 0 -25 5 -45 10 -45 6 0 10 -6 10 -12 1 -38 90 -98 145 -98 40 0
50 -25 50 -128 0 -67 -4 -97 -12 -100 -7 -2 -13 -9 -13 -16 0 -25 -41 -50 -98
-57 -47 -6 -62 -13 -84 -39 -15 -19 -29 -50 -33 -76 -3 -24 -10 -44 -14 -44
-20 0 -33 -183 -27 -400 3 -124 9 -334 12 -467 3 -134 10 -243 15 -243 5 0 9
-107 9 -245 0 -157 4 -245 10 -245 6 0 10 -18 10 -40 l0 -40 78 -1 c42 -1 347
0 677 0 l599 2 96 101 c52 55 97 106 99 112 2 6 24 32 50 57 65 65 165 179
171 194 3 6 41 49 85 94 44 45 82 87 83 94 2 7 25 33 50 58 26 25 63 64 82 88
19 23 56 64 83 90 26 26 47 52 47 57 0 5 34 43 75 84 41 41 75 78 75 83 0 12
22 32 43 40 9 3 17 12 17 19 0 8 29 43 65 78 36 35 65 68 65 72 0 13 34 48 46
48 7 0 26 21 42 47 17 27 58 75 92 108 33 33 60 65 60 72 0 6 20 28 44 49 24
20 60 56 81 81 l37 44 -53 52 c-51 49 -127 87 -173 87 -9 0 -16 5 -16 10 0 6
-25 10 -55 10 -30 0 -55 5 -55 10 0 6 -15 10 -34 10 -40 0 -46 14 -46 103 0
57 0 57 30 57 17 0 30 5 30 10 0 6 52 10 135 10 83 0 135 -4 135 -10 0 -5 20
-10 45 -10 25 0 45 -4 45 -10 0 -5 11 -10 24 -10 14 0 37 -11 52 -25 34 -32
54 -29 74 10 8 16 20 34 25 41 6 6 17 30 25 53 7 22 17 41 22 41 4 0 8 6 8 14
0 17 32 80 43 84 4 2 7 12 7 22 0 10 5 22 10 25 6 3 10 15 10 26 0 10 4 19 9
19 5 0 12 15 15 34 4 19 10 36 14 38 10 4 42 76 42 93 0 8 3 15 8 15 4 0 13
15 20 32 7 18 18 41 23 50 5 10 9 24 9 32 0 8 7 16 15 20 8 3 15 17 15 32 0
15 11 42 25 60 14 18 25 38 25 43 0 6 4 19 9 29 5 9 17 35 27 57 11 22 21 42
24 45 3 3 14 31 24 63 11 31 23 57 28 57 4 0 8 9 8 21 0 20 -35 58 -53 59 -5
0 -21 9 -36 19 -15 11 -39 23 -54 26 -15 4 -27 11 -27 16 0 5 -7 9 -15 9 -8 0
-15 5 -15 10 0 6 -8 10 -19 10 -10 0 -24 7 -31 15 -7 8 -17 15 -22 15 -6 0
-22 8 -36 19 -15 10 -38 22 -52 26 -14 4 -27 11 -30 14 -10 14 -66 49 -89 56
-14 4 -36 18 -50 31 -14 13 -39 29 -55 36 -31 12 -53 28 -88 60 -10 10 -24 18
-32 18 -7 0 -19 7 -26 15 -7 8 -17 15 -22 15 -10 0 -138 127 -138 136 0 3 -11
20 -25 38 -14 18 -25 38 -25 45 0 6 -19 -9 -43 -34 -24 -25 -49 -45 -55 -45
-7 0 -12 -3 -12 -7 0 -11 -58 -43 -76 -43 -8 0 -14 -4 -14 -10 0 -5 -6 -10
-14 -10 -7 0 -19 -7 -26 -15 -7 -8 -21 -15 -31 -15 -11 0 -19 -4 -19 -10 0 -5
-9 -10 -20 -10 -11 0 -20 -4 -20 -10 0 -5 -7 -10 -15 -10 -8 0 -15 -4 -15 -9
0 -5 -13 -12 -30 -16 -16 -4 -30 -11 -30 -16 0 -5 -6 -9 -14 -9 -7 0 -19 -7
-26 -15 -7 -8 -21 -15 -31 -15 -11 0 -19 -4 -19 -10 0 -5 -9 -10 -19 -10 -11
0 -21 -5 -23 -12 -3 -8 -32 -14 -80 -16 -67 -4 -77 -2 -96 18 -38 41 -92 57
-92 27 0 -16 -51 -67 -67 -67 -7 0 -13 -4 -13 -10 0 -5 -9 -10 -21 -10 -28 0
-126 -48 -133 -65 -2 -8 -23 -19 -45 -26 -23 -7 -41 -16 -41 -21 0 -4 -10 -8
-23 -8 -13 0 -28 -5 -34 -11 -7 -7 -62 -14 -127 -17 l-115 -5 -46 34 -45 34 3
65 2 65 60 9 c33 5 62 12 65 16 3 3 34 14 70 24 67 17 94 27 143 52 16 8 35
14 43 14 8 0 14 5 14 10 0 6 7 10 15 10 8 0 15 3 15 8 0 9 74 42 94 42 8 0 18
5 21 10 3 6 14 10 24 10 10 0 24 6 30 14 6 7 33 19 59 27 26 7 49 15 52 19 8
10 115 40 143 40 14 0 29 4 32 10 3 6 19 10 34 10 16 0 34 7 41 15 7 8 27 15
46 15 18 0 36 5 39 10 3 6 17 10 31 10 13 0 24 4 24 8 0 10 110 42 144 42 14
0 28 5 31 10 3 5 17 10 31 10 13 0 24 5 24 10 0 6 28 10 65 10 37 0 65 4 65
10 0 6 -4 10 -8 10 -9 0 -42 143 -42 183 0 15 -4 27 -10 27 -5 0 -10 18 -10
39 0 22 -4 41 -9 43 -21 7 -53 368 -32 368 6 0 11 8 11 18 0 10 25 42 55 72
30 30 55 59 55 64 0 13 91 100 113 109 10 4 20 15 24 24 4 10 15 27 25 37 15
17 18 38 18 133 0 69 -4 113 -10 113 -6 0 -10 58 -10 155 0 85 -4 155 -8 155
-8 0 -25 130 -39 300 -3 30 -8 57 -12 60 -9 6 -41 164 -41 202 0 15 -4 30 -10
33 -5 3 -10 17 -10 30 0 13 -3 25 -7 27 -11 4 -43 100 -43 126 0 11 -7 25 -15
32 -8 7 -15 22 -15 34 0 12 -9 32 -20 44 -11 12 -20 28 -20 36 0 7 -7 16 -15
20 -20 7 -22 126 -2 126 7 0 19 9 27 20 8 11 20 20 27 20 7 0 13 4 13 9 0 5
13 12 29 16 16 3 37 15 47 26 9 10 22 19 28 19 6 0 33 11 60 25 27 14 58 25
68 25 10 0 18 4 18 8 0 13 139 42 198 42 28 0 52 5 52 10 0 6 51 10 133 11 72
0 126 3 120 6 -7 2 -13 11 -13 19 0 15 -206 224 -221 224 -8 0 -73 40 -96 60
-7 5 -18 10 -25 10 -7 0 -34 11 -61 24 -26 14 -80 33 -120 43 -39 10 -73 21
-75 26 -2 4 -19 7 -37 7 -19 0 -37 5 -40 10 -4 6 -53 10 -116 10 -66 0 -109
-4 -109 -10 0 -5 -20 -10 -45 -10 -25 0 -45 -3 -45 -8 0 -4 -38 -16 -85 -27
-47 -10 -85 -22 -85 -26 0 -4 -31 -15 -70 -25 -38 -10 -70 -22 -70 -26 0 -4
-13 -8 -30 -8 -16 0 -30 -4 -30 -8 0 -4 -29 -17 -65 -27 -36 -11 -65 -23 -65
-27 0 -5 -6 -8 -14 -8 -7 0 -27 -7 -42 -15 -16 -8 -37 -15 -46 -15 -10 0 -18
-4 -18 -10 0 -5 -11 -10 -25 -10 -14 0 -25 -4 -25 -8 0 -4 -24 -16 -52 -26
-71 -24 -101 -39 -111 -53 -4 -7 -19 -13 -32 -13 -14 0 -25 -4 -25 -10 0 -5
-9 -10 -20 -10 -11 0 -20 -4 -20 -10 0 -5 -9 -10 -19 -10 -11 0 -22 -4 -26 -9
-3 -5 -19 -12 -35 -16 -17 -4 -30 -11 -30 -16 0 -5 -9 -9 -21 -9 -22 0 -81
-29 -87 -42 -2 -5 -12 -8 -23 -8 -10 0 -19 -4 -19 -10 0 -5 -9 -10 -19 -10
-11 0 -26 -7 -35 -15 -8 -8 -22 -15 -30 -15 -9 0 -16 -4 -16 -10 0 -5 -8 -10
-19 -10 -10 0 -24 -7 -31 -15 -7 -8 -21 -15 -31 -15 -11 0 -19 -4 -19 -10 0
-5 -9 -10 -20 -10 -11 0 -20 -4 -20 -9 0 -5 -15 -12 -33 -15 -19 -3 -43 -15
-55 -26 -12 -11 -26 -20 -32 -20 -12 0 -102 -48 -110 -59 -7 -10 -75 -41 -89
-41 -6 0 -11 -3 -11 -8 0 -9 -74 -42 -95 -42 -8 0 -15 -4 -15 -10 0 -11 -199
-14 -237 -4 -20 6 -23 13 -23 61 l0 56 77 78 c42 44 81 79 87 79 6 1 38 28 71
60 33 33 65 60 71 60 6 0 20 10 32 23 32 34 50 47 65 47 8 0 20 7 27 15 19 23
156 117 195 134 12 5 27 16 34 25 7 9 22 16 33 16 10 0 21 7 24 15 4 8 14 15
23 15 10 0 26 8 37 18 11 10 42 27 69 37 28 10 54 22 60 27 5 4 17 8 27 8 10
0 21 7 24 15 4 8 12 15 20 15 8 0 22 4 32 9 9 5 35 17 57 26 73 30 90 37 107
46 10 5 28 9 42 9 13 0 29 7 36 15 7 8 25 15 41 15 16 0 29 5 29 10 0 6 13 10
29 10 17 0 33 5 36 10 3 6 18 10 33 10 15 1 38 7 52 15 14 8 37 14 52 15 15 0
30 5 33 10 3 6 22 10 41 10 19 0 34 4 34 10 0 5 23 12 50 16 28 4 53 11 56 15
3 5 14 9 25 9 11 0 29 9 40 19 19 18 20 24 10 71 -6 28 -11 67 -11 85 0 19 -4
35 -8 35 -10 0 -42 188 -42 247 0 23 -4 45 -10 48 -5 3 -10 28 -10 55 0 26 -4
50 -10 52 -10 3 -26 115 -37 253 -3 39 -10 73 -15 76 -5 3 -10 44 -11 90 -1
46 -6 87 -12 91 -5 4 -11 95 -13 212 l-4 205 -33 26 c-33 24 -39 25 -184 25
-94 0 -151 -4 -151 -10z m-2439 -3610 c17 -9 19 -22 19 -100 0 -53 -4 -90 -10
-90 -5 0 -10 -8 -10 -18 0 -17 -32 -52 -49 -52 -4 0 -19 -9 -32 -21 -13 -11
-28 -24 -34 -27 -5 -4 -15 -16 -21 -27 -9 -17 -23 -20 -88 -23 -48 -2 -76 1
-76 8 0 5 -9 10 -20 10 -11 0 -20 4 -20 8 0 5 -9 18 -21 31 -17 18 -21 36 -22
104 l-2 82 29 3 c16 2 35 10 43 18 8 8 25 14 37 14 12 0 32 9 44 20 12 11 24
20 27 20 13 0 85 36 85 42 0 12 98 10 121 -2z m3737 -1815 c17 -14 35 -25 41
-25 8 0 11 -20 9 -62 -3 -58 -5 -64 -31 -76 -16 -8 -60 -47 -100 -88 -39 -41
-76 -74 -81 -74 -13 0 -166 -151 -166 -163 0 -13 -63 -77 -75 -77 -9 0 -105
-113 -105 -125 0 -6 -21 -31 -72 -86 -21 -23 -38 -46 -38 -52 -1 -7 -19 -30
-40 -52 -22 -22 -40 -44 -40 -50 0 -6 -9 -16 -20 -23 -11 -7 -20 -18 -20 -26
0 -8 -7 -16 -15 -20 -8 -3 -15 -12 -15 -21 0 -9 -11 -28 -25 -43 -14 -15 -25
-30 -25 -35 0 -4 -11 -20 -25 -35 -14 -15 -25 -32 -25 -39 0 -7 -4 -13 -10
-13 -5 0 -10 -7 -10 -15 0 -8 -4 -15 -10 -15 -5 0 -12 -11 -16 -25 -3 -14 -9
-25 -13 -25 -4 0 -21 -25 -36 -55 -16 -30 -33 -55 -37 -55 -4 0 -8 -7 -8 -15
0 -8 -4 -15 -10 -15 -5 0 -10 -8 -10 -19 0 -10 -7 -24 -15 -31 -8 -7 -15 -16
-15 -21 0 -5 -9 -18 -20 -29 -11 -11 -20 -29 -20 -40 0 -11 -7 -23 -15 -26 -8
-4 -15 -15 -15 -25 0 -10 -4 -19 -9 -19 -5 0 -13 -10 -17 -22 -3 -12 -15 -31
-25 -42 -11 -11 -19 -30 -19 -42 0 -12 -7 -24 -15 -28 -8 -3 -15 -15 -15 -26
0 -11 -4 -20 -10 -20 -5 0 -10 -9 -10 -20 0 -11 -4 -20 -10 -20 -5 0 -10 -7
-10 -16 0 -18 -31 -77 -42 -82 -5 -2 -8 -12 -8 -22 0 -9 -7 -23 -15 -30 -8 -7
-15 -21 -15 -31 0 -11 -4 -19 -10 -19 -5 0 -10 -9 -10 -20 0 -11 -4 -20 -10
-20 -5 0 -10 -7 -10 -17 0 -22 -32 -93 -42 -93 -4 0 -8 -9 -8 -20 0 -11 -4
-20 -9 -20 -5 0 -12 -16 -15 -35 -4 -19 -11 -35 -16 -35 -6 0 -10 -11 -10 -25
0 -14 -4 -25 -10 -25 -5 0 -10 -9 -10 -19 0 -11 -7 -26 -15 -35 -8 -8 -15 -24
-15 -35 0 -12 -4 -21 -10 -21 -5 0 -10 -11 -10 -24 0 -14 -4 -28 -10 -31 -5
-3 -10 -15 -10 -25 0 -10 -7 -25 -15 -34 -8 -8 -15 -24 -15 -35 0 -12 -4 -21
-9 -21 -5 0 -11 -12 -14 -27 -6 -33 -29 -96 -39 -103 -3 -3 -13 -32 -22 -65
-8 -33 -20 -61 -26 -63 -5 -2 -10 -17 -10 -33 0 -16 -4 -29 -9 -29 -5 0 -12
-18 -16 -40 -4 -22 -11 -40 -16 -40 -5 0 -9 -13 -9 -30 0 -16 -4 -30 -10 -30
-5 0 -10 -8 -10 -17 0 -18 -30 -105 -40 -113 -6 -6 -26 -48 -34 -72 -4 -15
-17 -18 -65 -18 l-60 0 -7 35 c-3 19 -10 38 -15 41 -5 3 -9 18 -9 34 0 15 -5
30 -12 32 -9 3 -12 38 -13 116 0 62 -4 112 -8 112 -4 0 -17 9 -29 20 -12 11
-29 20 -39 20 -9 0 -22 6 -28 14 -7 8 -25 18 -41 21 l-29 6 6 252 c3 139 10
254 14 257 5 3 10 96 12 205 6 293 26 639 37 643 6 2 10 52 10 118 0 69 4 114
10 114 6 0 10 26 10 59 0 87 30 345 41 349 5 2 9 19 9 39 0 42 31 163 42 163
4 0 8 6 8 13 0 6 11 24 24 40 21 24 30 27 85 27 33 0 61 -4 61 -9 0 -5 13 -12
29 -16 16 -3 32 -12 34 -20 3 -7 19 -16 36 -20 17 -4 31 -11 31 -16 0 -5 10
-9 23 -9 25 0 94 66 117 113 7 15 19 27 27 27 7 0 13 5 13 10 0 6 38 10 93 10
81 0 94 -2 107 -20 15 -20 60 -28 60 -10 0 6 12 10 26 10 25 0 86 28 92 43 2
4 28 7 58 7 42 0 60 -5 77 -21 12 -11 34 -23 50 -26 15 -3 27 -9 27 -14 0 -4
16 -11 35 -15 19 -3 35 -10 35 -15 0 -13 37 -11 45 2 4 5 18 14 30 19 30 11
65 62 47 68 -14 4 -17 122 -2 122 9 0 72 39 97 60 7 5 17 10 23 10 5 0 10 5
10 10 0 6 6 10 14 10 7 0 19 7 26 15 7 8 21 15 31 15 11 0 19 5 19 11 0 5 15
16 33 24 17 7 42 23 54 34 12 12 26 21 31 21 5 0 15 7 22 15 7 8 21 15 31 15
10 0 22 6 26 14 8 14 49 40 111 72 17 9 32 20 32 25 0 5 7 9 15 9 8 0 15 5 15
10 0 6 31 10 74 10 65 0 78 -3 104 -25z"/></g></svg>