<svg version="1.1" id="Layer_1" xmlns="http://www.w3.org/2000/svg" xmlns:xlink="http://www.w3.org/1999/xlink" x="0px" y="0px"
	 width="100%" viewBox="0 0 256 256" enable-background="new 0 0 256 256" xml:space="preserve">
<path fill="#000000" opacity="1.000000" stroke="none" 
	d="
M257.000000,99.000000 
	C257.000000,152.000000 257.000000,204.500000 257.000000,257.000000 
	C171.666672,257.000000 86.333336,257.000000 1.000000,257.000000 
	C1.000000,171.666672 1.000000,86.333336 1.000000,1.000000 
	C86.333336,1.000000 171.666672,1.000000 257.000000,1.000000 
	C257.000000,33.500000 257.000000,66.000000 257.000000,99.000000 
M192.997467,124.633446 
	C196.682922,109.773712 200.412354,94.924507 203.974899,80.035370 
	C204.278229,78.767639 203.965775,76.659042 203.100723,75.911240 
	C193.133759,67.295273 182.927414,58.956692 172.938202,50.365871 
	C160.463852,39.637802 148.132736,28.743162 135.733368,17.914831 
	C127.713272,25.451435 119.945618,32.598915 112.350037,39.924801 
	C101.496971,50.392509 90.772583,60.993607 79.982727,71.526962 
	C79.270630,72.222137 78.568138,73.052864 77.692863,73.433754 
	C73.570740,75.227585 73.382278,78.560379 74.244461,82.186363 
	C75.538300,87.627762 77.029526,93.022011 78.412750,98.442436 
	C81.141357,109.135002 83.876427,119.826019 86.560616,130.529770 
	C87.573761,134.569885 86.171814,135.878296 82.327148,134.827774 
	C78.681442,133.831619 74.828880,133.427292 71.335625,132.071381 
	C62.938999,128.812225 56.607204,131.738190 50.520679,137.524673 
	C43.304676,144.384964 35.621033,150.754089 28.123520,157.317184 
	C25.342224,159.751846 23.869511,162.417191 26.180729,165.992950 
	C35.221382,179.980026 44.272785,193.960297 53.263279,207.979599 
	C56.425716,212.910934 61.957745,216.781357 58.199310,224.348526 
	C56.097683,228.579880 60.458435,232.654160 67.755356,232.838470 
	C80.226143,233.153412 90.182526,238.523636 100.263954,244.828186 
	C105.502098,248.103943 111.566689,250.299286 117.517998,252.143570 
	C130.110580,256.046051 142.610184,253.238800 154.598541,249.515060 
	C171.631561,244.224380 188.699600,239.646973 206.512787,237.834473 
	C211.436264,237.333542 216.614838,235.604736 220.852127,233.064438 
	C225.866898,230.058029 230.231155,224.829880 229.328827,218.907715 
	C228.848389,215.754349 223.568008,213.333496 220.458511,210.577118 
	C220.219696,210.365433 220.015518,210.114670 219.623230,209.700455 
	C219.917938,208.390274 220.032867,206.861420 220.597504,205.522186 
	C228.696548,186.312668 236.715790,167.066864 245.119217,147.990570 
	C246.808456,144.155899 245.940216,142.110428 243.228119,139.490936 
	C233.682114,130.270828 224.352524,120.826660 214.711349,111.239326 
	C213.283768,112.191528 211.573395,113.176956 210.038071,114.384895 
	C204.989792,118.356743 200.023438,122.433159 194.939438,126.357803 
	C194.694275,126.547073 193.627991,125.672668 192.997467,124.633446 
M215.749252,29.642836 
	C218.959457,28.647928 222.169647,27.653021 225.379837,26.658113 
	C225.281509,26.168594 225.183167,25.679075 225.084824,25.189558 
	C222.866394,24.760014 220.615936,24.452200 218.435532,23.878214 
	C211.760483,22.121027 209.921326,23.428473 208.781021,15.074443 
	C208.422638,12.448826 207.364792,9.918687 206.627090,7.344848 
	C204.891144,9.330943 204.259872,11.269222 203.909393,13.257011 
	C202.967819,18.597429 201.374557,22.948019 194.662399,23.254093 
	C191.534119,23.396744 188.471039,24.969713 185.378387,25.894356 
	C189.068665,27.739412 192.565369,28.634094 196.040924,29.604488 
	C199.280472,30.508982 201.974365,31.847979 202.666504,35.753395 
	C203.216782,38.858414 204.412109,41.849117 205.321045,44.890575 
	C205.885147,44.831104 206.449249,44.771633 207.013336,44.712162 
	C207.936615,41.272324 209.063477,37.870941 209.722702,34.381218 
	C210.315506,31.243147 211.941025,29.770350 215.749252,29.642836 
M30.966894,89.164742 
	C31.664751,82.327904 38.917038,85.362335 42.669044,81.185738 
	C33.554363,80.244400 28.822723,75.293564 28.434175,66.209152 
	C27.128782,68.447044 26.301903,70.215843 25.995951,72.070572 
	C25.319935,76.168655 24.225132,79.327019 18.949936,78.982460 
	C17.180344,78.866875 15.298864,80.464264 13.468527,81.278687 
	C13.205229,81.819878 12.941932,82.361069 12.678634,82.902252 
	C22.994436,82.552353 27.118864,88.092087 28.329370,96.937164 
	C29.185472,94.584312 30.041573,92.231468 30.966894,89.164742 
M232.783417,59.728558 
	C225.738342,59.343113 228.057602,52.130856 223.998016,47.733410 
	C224.377747,57.939388 218.058304,60.386375 210.117157,61.407265 
	C211.774216,62.498665 213.096161,62.779491 214.427780,63.002636 
	C218.805878,63.736282 222.314651,65.298759 222.784683,70.514938 
	C222.934494,72.177383 223.852737,73.770584 224.419373,75.395470 
	C224.960464,75.529266 225.501572,75.663063 226.042679,75.796860 
	C224.988144,66.134079 231.591049,63.718910 238.288208,60.983322 
	C236.705933,60.621521 235.123657,60.259716 232.783417,59.728558 
M53.791340,111.138466 
	C56.392620,108.631111 58.993900,106.123749 61.428326,103.777222 
	C56.119785,103.165161 52.405865,99.641594 51.972500,92.232162 
	C52.237877,100.396965 46.638386,102.164360 40.335152,103.993889 
	C43.832695,105.371407 46.748264,105.752670 48.432079,107.396019 
	C50.157562,109.080048 50.677410,111.999397 51.955032,114.900497 
	C52.675102,113.510422 53.113411,112.664276 53.791340,111.138466 
z"/>
<path fill="#373737" opacity="1.000000" stroke="none" 
	d="
M192.970764,124.963516 
	C193.627991,125.672668 194.694275,126.547073 194.939438,126.357803 
	C200.023438,122.433159 204.989792,118.356743 210.038071,114.384895 
	C211.573395,113.176956 213.283768,112.191528 214.711349,111.239326 
	C224.352524,120.826660 233.682114,130.270828 243.228119,139.490936 
	C245.940216,142.110428 246.808456,144.155899 245.119217,147.990570 
	C236.715790,167.066864 228.696548,186.312668 220.597504,205.522186 
	C220.032867,206.861420 219.917938,208.390274 219.623230,209.700455 
	C220.015518,210.114670 220.219696,210.365433 220.458511,210.577118 
	C223.568008,213.333496 228.848389,215.754349 229.328827,218.907715 
	C230.231155,224.829880 225.866898,230.058029 220.852127,233.064438 
	C216.614838,235.604736 211.436264,237.333542 206.512787,237.834473 
	C188.699600,239.646973 171.631561,244.224380 154.598541,249.515060 
	C142.610184,253.238800 130.110580,256.046051 117.517998,252.143570 
	C111.566689,250.299286 105.502098,248.103943 100.263954,244.828186 
	C90.182526,238.523636 80.226143,233.153412 67.755356,232.838470 
	C60.458435,232.654160 56.097683,228.579880 58.199310,224.348526 
	C61.957745,216.781357 56.425716,212.910934 53.263279,207.979599 
	C44.272785,193.960297 35.221382,179.980026 26.180729,165.992950 
	C23.869511,162.417191 25.342224,159.751846 28.123520,157.317184 
	C35.621033,150.754089 43.304676,144.384964 50.520679,137.524673 
	C56.607204,131.738190 62.938999,128.812225 71.335625,132.071381 
	C74.828880,133.427292 78.681442,133.831619 82.327148,134.827774 
	C86.171814,135.878296 87.573761,134.569885 86.560616,130.529770 
	C83.876427,119.826019 81.141357,109.135002 78.412750,98.442436 
	C77.029526,93.022011 75.538300,87.627762 74.244461,82.186363 
	C73.382278,78.560379 73.570740,75.227585 77.692863,73.433754 
	C78.568138,73.052864 79.270630,72.222137 79.982727,71.526962 
	C90.772583,60.993607 101.496971,50.392509 112.350037,39.924801 
	C119.945618,32.598915 127.713272,25.451435 135.733368,17.914831 
	C148.132736,28.743162 160.463852,39.637802 172.938202,50.365871 
	C182.927414,58.956692 193.133759,67.295273 203.100723,75.911240 
	C203.965775,76.659042 204.278229,78.767639 203.974899,80.035370 
	C200.412354,94.924507 196.682922,109.773712 192.970764,124.963516 
M137.011414,189.708755 
	C137.675995,182.953308 138.299454,176.193512 139.013016,169.443237 
	C140.995270,150.691635 142.725784,131.905518 145.211761,113.220314 
	C145.880753,108.192009 143.994736,106.834930 140.100479,105.509354 
	C128.181717,101.452309 116.359230,97.112839 104.448524,93.031395 
	C99.301987,91.267838 94.030907,89.867729 87.716393,87.972343 
	C91.327042,102.597748 94.598579,115.577766 97.729805,128.591537 
	C103.597298,152.977554 109.845779,177.286224 114.990181,201.825302 
	C117.243454,212.573532 124.522415,217.517532 133.534409,223.603500 
	C134.773972,211.820847 135.888855,201.223480 137.011414,189.708755 
M183.937836,113.540756 
	C185.755692,106.274117 187.573563,99.007477 189.446655,91.520065 
	C188.244873,91.520065 187.676422,91.349480 187.296402,91.545021 
	C178.012314,96.322350 168.706665,101.061951 159.531525,106.041618 
	C158.339096,106.688797 157.269821,108.542404 157.103592,109.950531 
	C155.279526,125.401131 153.652985,140.874985 151.958710,156.340988 
	C150.731430,167.544098 149.414032,178.737808 148.264877,189.948853 
	C147.276581,199.590668 146.469498,209.251038 145.582275,218.903214 
	C146.012619,219.284973 146.442947,219.666733 146.873291,220.048477 
	C151.165863,216.245651 157.543243,213.230423 159.336578,208.483429 
	C163.671112,197.009949 165.866806,184.728363 168.923325,172.772202 
	C173.900085,153.304520 178.875702,133.836548 183.937836,113.540756 
M73.667297,189.921188 
	C77.506561,199.151733 81.345833,208.382263 85.314903,217.924866 
	C90.831444,214.527420 95.624794,211.420502 100.571609,208.580917 
	C104.116371,206.546158 104.400490,203.716476 103.485809,200.206192 
	C101.205078,191.453476 98.992386,182.682678 96.811165,173.904526 
	C94.649635,165.205658 92.559998,156.488907 90.317978,147.283844 
	C88.482292,148.257278 87.233757,148.712753 86.229637,149.485748 
	C80.241379,154.095612 74.611107,159.255890 68.255089,163.273300 
	C63.854130,166.054993 64.655357,168.691986 66.227303,172.269485 
	C68.691528,177.877701 70.985008,183.560944 73.667297,189.921188 
M139.844955,73.696846 
	C137.192261,61.855881 134.539551,50.014912 131.577057,36.791088 
	C116.899879,50.750603 103.532661,63.464211 89.390617,76.914764 
	C96.909309,79.575478 103.068748,81.773926 109.241196,83.935219 
	C119.212212,87.426590 129.167023,90.967339 139.181976,94.328362 
	C142.425461,95.416885 144.404251,94.792671 143.300842,90.517288 
	C141.942154,85.252846 141.018433,79.876137 139.844955,73.696846 
M180.148483,211.304443 
	C181.237015,212.046707 182.322754,212.793106 183.414536,213.530548 
	C190.321716,218.196030 190.805542,218.004257 193.258392,210.098068 
	C198.229828,194.073715 203.271378,178.070984 208.166702,162.023529 
	C208.474380,161.014908 208.173630,159.072601 207.474335,158.621704 
	C201.118484,154.523361 194.611008,150.660141 187.807281,146.520950 
	C186.926956,148.618591 186.093964,150.062134 185.703903,151.616806 
	C181.864243,166.920700 178.041519,182.229340 174.333817,197.565613 
	C172.296478,205.992691 172.399704,206.017654 180.148483,211.304443 
M177.512650,68.001381 
	C167.032501,59.033249 156.552338,50.065117 146.072189,41.096989 
	C145.645599,41.303116 145.219009,41.509243 144.792419,41.715370 
	C148.408279,59.366302 152.024139,77.017235 155.758453,95.246407 
	C167.017807,89.627090 177.738998,84.276367 189.254379,78.529266 
	C185.094757,74.821228 181.554062,71.664940 177.512650,68.001381 
M208.621597,189.047012 
	C205.890305,197.999786 203.158997,206.952560 200.338806,216.196762 
	C205.620773,216.018677 208.332825,213.694427 210.031769,209.637238 
	C216.523361,194.134796 223.158478,178.692505 229.680542,163.202744 
	C230.955536,160.174683 231.965469,157.035034 233.097641,153.946838 
	C229.503525,154.403183 227.121399,155.960068 224.508606,156.795456 
	C218.973068,158.565353 216.555023,162.447662 215.186966,167.844345 
	C213.436966,174.747650 210.972855,181.469894 208.621597,189.047012 
M42.097630,174.452866 
	C43.134216,175.931305 44.228008,177.373260 45.198231,178.894043 
	C52.187286,189.849060 59.128201,200.834869 66.138718,211.776077 
	C68.001488,214.683289 70.351395,216.683868 74.339211,215.063065 
	C74.102051,214.147476 74.014343,213.492645 73.767975,212.904251 
	C68.492981,200.306198 63.111382,187.751877 57.947620,175.108536 
	C55.289608,168.600449 45.141872,164.625076 38.495422,167.838440 
	C39.545105,169.856705 40.594936,171.875244 42.097630,174.452866 
M54.507408,144.987335 
	C49.973164,149.248291 45.438923,153.509247 40.143562,158.485458 
	C47.207344,159.798096 53.607761,162.661301 59.219658,159.350800 
	C66.774391,154.894226 73.465813,148.974182 80.527763,143.682266 
	C80.477570,143.164795 80.427383,142.647308 80.377190,142.129837 
	C75.134636,141.060410 69.865135,139.093094 64.659378,139.249344 
	C61.398109,139.347229 58.232727,142.639420 54.507408,144.987335 
M196.814194,142.730881 
	C199.784134,144.449051 202.663910,146.367325 205.776199,147.769501 
	C206.774261,148.219162 209.495041,147.444366 209.551651,146.993973 
	C210.384949,140.364883 210.301605,133.769623 207.633835,126.636833 
	C202.129059,130.876923 197.255783,134.630600 191.765869,138.859253 
	C193.528961,140.282455 194.848221,141.347397 196.814194,142.730881 
M217.992371,131.217972 
	C217.992371,137.120819 217.992371,143.023651 217.992371,150.543381 
	C224.273575,147.502777 229.116226,145.158554 234.532059,142.536865 
	C229.152908,136.394257 224.662247,131.266235 220.171585,126.138214 
	C219.590790,126.621368 219.009995,127.104530 218.429199,127.587685 
	C218.287720,128.534912 218.146240,129.482132 217.992371,131.217972 
z"/>
<path fill="#3C3C3C" opacity="1.000000" stroke="none" 
	d="
M215.399353,29.707733 
	C211.941025,29.770350 210.315506,31.243147 209.722702,34.381218 
	C209.063477,37.870941 207.936615,41.272324 207.013336,44.712162 
	C206.449249,44.771633 205.885147,44.831104 205.321045,44.890575 
	C204.412109,41.849117 203.216782,38.858414 202.666504,35.753395 
	C201.974365,31.847979 199.280472,30.508982 196.040924,29.604488 
	C192.565369,28.634094 189.068665,27.739412 185.378387,25.894356 
	C188.471039,24.969713 191.534119,23.396744 194.662399,23.254093 
	C201.374557,22.948019 202.967819,18.597429 203.909393,13.257011 
	C204.259872,11.269222 204.891144,9.330943 206.627090,7.344848 
	C207.364792,9.918687 208.422638,12.448826 208.781021,15.074443 
	C209.921326,23.428473 211.760483,22.121027 218.435532,23.878214 
	C220.615936,24.452200 222.866394,24.760014 225.084824,25.189558 
	C225.183167,25.679075 225.281509,26.168594 225.379837,26.658113 
	C222.169647,27.653021 218.959457,28.647928 215.399353,29.707733 
z"/>
<path fill="#3E3E3E" opacity="1.000000" stroke="none" 
	d="
M30.932285,89.521683 
	C30.041573,92.231468 29.185472,94.584312 28.329370,96.937164 
	C27.118864,88.092087 22.994436,82.552353 12.678634,82.902252 
	C12.941932,82.361069 13.205229,81.819878 13.468527,81.278687 
	C15.298864,80.464264 17.180344,78.866875 18.949936,78.982460 
	C24.225132,79.327019 25.319935,76.168655 25.995951,72.070572 
	C26.301903,70.215843 27.128782,68.447044 28.434175,66.209152 
	C28.822723,75.293564 33.554363,80.244400 42.669044,81.185738 
	C38.917038,85.362335 31.664751,82.327904 30.932285,89.521683 
z"/>
<path fill="#3F3F3F" opacity="1.000000" stroke="none" 
	d="
M233.162399,59.813236 
	C235.123657,60.259716 236.705933,60.621521 238.288208,60.983322 
	C231.591049,63.718910 224.988144,66.134079 226.042679,75.796860 
	C225.501572,75.663063 224.960464,75.529266 224.419373,75.395470 
	C223.852737,73.770584 222.934494,72.177383 222.784683,70.514938 
	C222.314651,65.298759 218.805878,63.736282 214.427780,63.002636 
	C213.096161,62.779491 211.774216,62.498665 210.117157,61.407265 
	C218.058304,60.386375 224.377747,57.939388 223.998016,47.733410 
	C228.057602,52.130856 225.738342,59.343113 233.162399,59.813236 
z"/>
<path fill="#464646" opacity="1.000000" stroke="none" 
	d="
M53.671532,111.478302 
	C53.113411,112.664276 52.675102,113.510422 51.955032,114.900497 
	C50.677410,111.999397 50.157562,109.080048 48.432079,107.396019 
	C46.748264,105.752670 43.832695,105.371407 40.335152,103.993889 
	C46.638386,102.164360 52.237877,100.396965 51.972500,92.232162 
	C52.405865,99.641594 56.119785,103.165161 61.428326,103.777222 
	C58.993900,106.123749 56.392620,108.631111 53.671532,111.478302 
z"/>
<path fill="#000000" opacity="1.000000" stroke="none" 
	d="
M137.007568,190.167435 
	C135.888855,201.223480 134.773972,211.820847 133.534409,223.603500 
	C124.522415,217.517532 117.243454,212.573532 114.990181,201.825302 
	C109.845779,177.286224 103.597298,152.977554 97.729805,128.591537 
	C94.598579,115.577766 91.327042,102.597748 87.716393,87.972343 
	C94.030907,89.867729 99.301987,91.267838 104.448524,93.031395 
	C116.359230,97.112839 128.181717,101.452309 140.100479,105.509354 
	C143.994736,106.834930 145.880753,108.192009 145.211761,113.220314 
	C142.725784,131.905518 140.995270,150.691635 139.013016,169.443237 
	C138.299454,176.193512 137.675995,182.953308 137.007568,190.167435 
z"/>
<path fill="#000000" opacity="1.000000" stroke="none" 
	d="
M183.894806,113.954727 
	C178.875702,133.836548 173.900085,153.304520 168.923325,172.772202 
	C165.866806,184.728363 163.671112,197.009949 159.336578,208.483429 
	C157.543243,213.230423 151.165863,216.245651 146.873291,220.048477 
	C146.442947,219.666733 146.012619,219.284973 145.582275,218.903214 
	C146.469498,209.251038 147.276581,199.590668 148.264877,189.948853 
	C149.414032,178.737808 150.731430,167.544098 151.958710,156.340988 
	C153.652985,140.874985 155.279526,125.401131 157.103592,109.950531 
	C157.269821,108.542404 158.339096,106.688797 159.531525,106.041618 
	C168.706665,101.061951 178.012314,96.322350 187.296402,91.545021 
	C187.676422,91.349480 188.244873,91.520065 189.446655,91.520065 
	C187.573563,99.007477 185.755692,106.274117 183.894806,113.954727 
z"/>
<path fill="#000000" opacity="1.000000" stroke="none" 
	d="
M73.509048,189.566803 
	C70.985008,183.560944 68.691528,177.877701 66.227303,172.269485 
	C64.655357,168.691986 63.854130,166.054993 68.255089,163.273300 
	C74.611107,159.255890 80.241379,154.095612 86.229637,149.485748 
	C87.233757,148.712753 88.482292,148.257278 90.317978,147.283844 
	C92.559998,156.488907 94.649635,165.205658 96.811165,173.904526 
	C98.992386,182.682678 101.205078,191.453476 103.485809,200.206192 
	C104.400490,203.716476 104.116371,206.546158 100.571609,208.580917 
	C95.624794,211.420502 90.831444,214.527420 85.314903,217.924866 
	C81.345833,208.382263 77.506561,199.151733 73.509048,189.566803 
z"/>
<path fill="#000000" opacity="1.000000" stroke="none" 
	d="
M139.875839,74.122398 
	C141.018433,79.876137 141.942154,85.252846 143.300842,90.517288 
	C144.404251,94.792671 142.425461,95.416885 139.181976,94.328362 
	C129.167023,90.967339 119.212212,87.426590 109.241196,83.935219 
	C103.068748,81.773926 96.909309,79.575478 89.390617,76.914764 
	C103.532661,63.464211 116.899879,50.750603 131.577057,36.791088 
	C134.539551,50.014912 137.192261,61.855881 139.875839,74.122398 
z"/>
<path fill="#000000" opacity="1.000000" stroke="none" 
	d="
M179.866638,211.070862 
	C172.399704,206.017654 172.296478,205.992691 174.333817,197.565613 
	C178.041519,182.229340 181.864243,166.920700 185.703903,151.616806 
	C186.093964,150.062134 186.926956,148.618591 187.807281,146.520950 
	C194.611008,150.660141 201.118484,154.523361 207.474335,158.621704 
	C208.173630,159.072601 208.474380,161.014908 208.166702,162.023529 
	C203.271378,178.070984 198.229828,194.073715 193.258392,210.098068 
	C190.805542,218.004257 190.321716,218.196030 183.414536,213.530548 
	C182.322754,212.793106 181.237015,212.046707 179.866638,211.070862 
z"/>
<path fill="#000000" opacity="1.000000" stroke="none" 
	d="
M177.763016,68.255020 
	C181.554062,71.664940 185.094757,74.821228 189.254379,78.529266 
	C177.738998,84.276367 167.017807,89.627090 155.758453,95.246407 
	C152.024139,77.017235 148.408279,59.366302 144.792419,41.715370 
	C145.219009,41.509243 145.645599,41.303116 146.072189,41.096989 
	C156.552338,50.065117 167.032501,59.033249 177.763016,68.255020 
z"/>
<path fill="#000000" opacity="1.000000" stroke="none" 
	d="
M208.719040,188.658585 
	C210.972855,181.469894 213.436966,174.747650 215.186966,167.844345 
	C216.555023,162.447662 218.973068,158.565353 224.508606,156.795456 
	C227.121399,155.960068 229.503525,154.403183 233.097641,153.946838 
	C231.965469,157.035034 230.955536,160.174683 229.680542,163.202744 
	C223.158478,178.692505 216.523361,194.134796 210.031769,209.637238 
	C208.332825,213.694427 205.620773,216.018677 200.338806,216.196762 
	C203.158997,206.952560 205.890305,197.999786 208.719040,188.658585 
z"/>
<path fill="#000000" opacity="1.000000" stroke="none" 
	d="
M41.871201,174.173340 
	C40.594936,171.875244 39.545105,169.856705 38.495422,167.838440 
	C45.141872,164.625076 55.289608,168.600449 57.947620,175.108536 
	C63.111382,187.751877 68.492981,200.306198 73.767975,212.904251 
	C74.014343,213.492645 74.102051,214.147476 74.339211,215.063065 
	C70.351395,216.683868 68.001488,214.683289 66.138718,211.776077 
	C59.128201,200.834869 52.187286,189.849060 45.198231,178.894043 
	C44.228008,177.373260 43.134216,175.931305 41.871201,174.173340 
z"/>
<path fill="#000000" opacity="1.000000" stroke="none" 
	d="
M54.765865,144.742844 
	C58.232727,142.639420 61.398109,139.347229 64.659378,139.249344 
	C69.865135,139.093094 75.134636,141.060410 80.377190,142.129837 
	C80.427383,142.647308 80.477570,143.164795 80.527763,143.682266 
	C73.465813,148.974182 66.774391,154.894226 59.219658,159.350800 
	C53.607761,162.661301 47.207344,159.798096 40.143562,158.485458 
	C45.438923,153.509247 49.973164,149.248291 54.765865,144.742844 
z"/>
<path fill="#000000" opacity="1.000000" stroke="none" 
	d="
M196.490829,142.571594 
	C194.848221,141.347397 193.528961,140.282455 191.765869,138.859253 
	C197.255783,134.630600 202.129059,130.876923 207.633835,126.636833 
	C210.301605,133.769623 210.384949,140.364883 209.551651,146.993973 
	C209.495041,147.444366 206.774261,148.219162 205.776199,147.769501 
	C202.663910,146.367325 199.784134,144.449051 196.490829,142.571594 
z"/>
<path fill="#000000" opacity="1.000000" stroke="none" 
	d="
M217.998566,130.823669 
	C218.146240,129.482132 218.287720,128.534912 218.429199,127.587685 
	C219.009995,127.104530 219.590790,126.621368 220.171585,126.138214 
	C224.662247,131.266235 229.152908,136.394257 234.532059,142.536865 
	C229.116226,145.158554 224.273575,147.502777 217.992371,150.543381 
	C217.992371,143.023651 217.992371,137.120819 217.998566,130.823669 
z"/>
</svg>