<?xml version="1.0" standalone="no"?>
<!DOCTYPE svg PUBLIC "-//W3C//DTD SVG 20010904//EN"
 "http://www.w3.org/TR/2001/REC-SVG-20010904/DTD/svg10.dtd">
<svg version="1.0" xmlns="http://www.w3.org/2000/svg"
 width="500.000000pt" height="500.000000pt" viewBox="0 0 500.000000 500.000000"
 preserveAspectRatio="xMidYMid meet">
<metadata>
Created by potrace 1.16, written by Peter Selinger 2001-2019
</metadata>
<g transform="translate(0.000000,500.000000) scale(0.100000,-0.100000)"
fill="#000000" stroke="none">
<path d="M1860 4034 c-146 -25 -193 -47 -276 -131 -138 -137 -228 -319 -345
-692 -34 -109 -75 -176 -119 -197 -14 -7 -61 -17 -105 -23 -108 -13 -328 -82
-434 -136 -197 -98 -386 -288 -483 -481 -59 -119 -67 -167 -67 -409 -1 -215
11 -312 48 -391 87 -185 284 -389 482 -498 178 -98 309 -121 669 -120 221 0
286 4 395 22 328 54 599 171 1080 467 55 34 152 90 215 125 63 35 142 79 175
97 110 63 479 241 551 266 107 38 165 46 459 62 618 34 713 52 823 162 103
103 88 178 -62 321 -120 114 -215 152 -378 152 -105 0 -148 -7 -270 -47 -102
-32 -169 -78 -314 -215 -218 -205 -337 -291 -596 -426 -302 -159 -695 -266
-1108 -302 -174 -16 -667 -13 -775 4 -235 37 -434 143 -523 277 -57 86 -67
134 -67 334 0 175 1 182 30 265 l30 85 85 3 c47 2 96 0 109 -3 13 -3 67 -47
120 -98 189 -181 355 -233 776 -244 241 -6 411 5 577 37 151 29 376 92 519
146 242 91 651 286 720 343 l33 28 -12 84 c-24 167 -121 511 -183 648 -38 84
-146 245 -198 295 -32 32 -51 41 -93 48 -29 4 -253 10 -498 14 l-445 6 -90 40
c-153 68 -189 78 -315 83 -63 2 -126 2 -140 -1z"/>
</g>
</svg>
